<svg xmlns="http://www.w3.org/2000/svg" width="92.16" height="92.16" fill-rule="evenodd" clip-rule="evenodd" image-rendering="optimizeQuality" shape-rendering="geometricPrecision" text-rendering="geometricPrecision"><path fill="#fff" d="M85.485 0H6.947C3.19 0 0 2.97 0 6.631v78.894c0 3.664 2.093 6.635 5.849 6.635h78.538c3.762 0 7.773-2.97 7.773-6.635V6.631C92.16 2.971 89.246 0 85.485 0ZM35.108 35.108h12.407v6.324h.136c1.89-3.41 7.477-6.872 14.385-6.872 13.258 0 16.959 7.04 16.959 20.077v24.358H65.828V57.039c0-5.837-2.33-10.959-7.78-10.959-6.619 0-9.774 4.48-9.774 11.836v21.079H35.108ZM13.165 78.995h13.167V35.108H13.165Zm14.812-59.247a8.226 8.226 0 0 1-8.229 8.229 8.226 8.226 0 0 1-8.228-8.229 8.226 8.226 0 0 1 8.228-8.228 8.226 8.226 0 0 1 8.229 8.228z" style="stroke-width:.18"/></svg>