<?xml version="1.0" encoding="UTF-8"?>
<svg id="Layer_2" data-name="Layer 2" xmlns="http://www.w3.org/2000/svg" viewBox="0 0 144.52 134.19">
  <defs>
    <style>
      .cls-1 {
        fill: #b6b6c6;
      }
    </style>
  </defs>
  <g id="Layer_1-2" data-name="Layer 1">
    <g>
      <rect class="cls-1" x="113.55" y="36.13" width="5.16" height="5.16"/>
      <rect class="cls-1" x="108.39" y="36.13" width="5.16" height="5.16"/>
      <rect class="cls-1" x="118.71" y="30.97" width="5.16" height="5.16"/>
      <rect class="cls-1" x="113.55" y="30.97" width="5.16" height="5.16"/>
      <rect class="cls-1" x="108.39" y="30.97" width="5.16" height="5.16"/>
      <rect class="cls-1" x="103.23" y="30.97" width="5.16" height="5.16"/>
      <rect class="cls-1" x="118.71" y="25.81" width="5.16" height="5.16"/>
      <rect class="cls-1" x="113.55" y="25.81" width="5.16" height="5.16"/>
      <rect class="cls-1" x="108.39" y="25.81" width="5.16" height="5.16"/>
      <rect class="cls-1" x="123.87" y="20.65" width="5.16" height="5.16"/>
      <rect class="cls-1" x="113.55" y="20.65" width="5.16" height="5.16"/>
      <rect class="cls-1" x="118.71" y="20.65" width="5.16" height="5.16"/>
      <rect class="cls-1" x="108.39" y="20.65" width="5.16" height="5.16"/>
      <rect class="cls-1" x="123.87" y="15.49" width="5.16" height="5.16"/>
      <rect class="cls-1" x="118.71" y="15.49" width="5.16" height="5.16"/>
      <rect class="cls-1" x="113.55" y="15.49" width="5.16" height="5.16"/>
      <rect class="cls-1" x="108.39" y="15.49" width="5.16" height="5.16"/>
      <rect class="cls-1" x="118.71" y="129.03" width="5.16" height="5.16"/>
      <rect class="cls-1" x="123.87" y="129.03" width="5.16" height="5.16"/>
      <rect class="cls-1" x="129.03" y="123.87" width="5.16" height="5.16"/>
      <rect class="cls-1" x="129.03" y="118.71" width="5.16" height="5.16"/>
      <rect class="cls-1" x="118.71" y="123.87" width="5.16" height="5.16"/>
      <rect class="cls-1" x="123.87" y="123.87" width="5.16" height="5.16"/>
      <rect class="cls-1" x="113.55" y="118.71" width="5.16" height="5.16"/>
      <rect class="cls-1" x="123.87" y="113.55" width="5.16" height="5.16"/>
      <rect class="cls-1" x="118.71" y="113.55" width="5.16" height="5.16"/>
      <rect class="cls-1" x="113.55" y="113.55" width="5.16" height="5.16"/>
      <rect class="cls-1" x="87.74" y="123.87" width="5.16" height="5.16"/>
      <rect class="cls-1" x="82.58" y="123.87" width="5.16" height="5.16"/>
      <rect class="cls-1" x="98.07" y="118.71" width="5.16" height="5.16"/>
      <rect class="cls-1" x="92.9" y="118.71" width="5.17" height="5.16"/>
      <rect class="cls-1" x="87.74" y="118.71" width="5.16" height="5.16"/>
      <rect class="cls-1" x="82.58" y="118.71" width="5.16" height="5.16"/>
      <rect class="cls-1" x="98.07" y="113.55" width="5.16" height="5.16"/>
      <rect class="cls-1" x="87.74" y="113.55" width="5.16" height="5.16"/>
      <rect class="cls-1" x="92.9" y="113.55" width="5.17" height="5.16"/>
      <rect class="cls-1" x="82.58" y="113.55" width="5.16" height="5.16"/>
      <rect class="cls-1" x="77.42" y="113.55" width="5.16" height="5.16"/>
      <rect class="cls-1" x="118.71" y="108.39" width="5.16" height="5.16"/>
      <rect class="cls-1" x="113.55" y="108.39" width="5.16" height="5.16"/>
      <rect class="cls-1" x="108.39" y="108.39" width="5.16" height="5.16"/>
      <rect class="cls-1" x="103.23" y="108.39" width="5.16" height="5.16"/>
      <rect class="cls-1" x="98.07" y="108.39" width="5.16" height="5.16"/>
      <rect class="cls-1" x="87.74" y="108.39" width="5.16" height="5.16"/>
      <rect class="cls-1" x="92.9" y="108.39" width="5.17" height="5.16"/>
      <rect class="cls-1" x="82.58" y="108.39" width="5.16" height="5.16"/>
      <rect class="cls-1" x="118.71" y="103.23" width="5.16" height="5.16"/>
      <rect class="cls-1" x="113.55" y="103.23" width="5.16" height="5.16"/>
      <rect class="cls-1" x="108.39" y="103.23" width="5.16" height="5.16"/>
      <rect class="cls-1" x="98.07" y="103.23" width="5.16" height="5.16"/>
      <rect class="cls-1" x="103.23" y="103.23" width="5.16" height="5.16"/>
      <rect class="cls-1" x="87.74" y="103.23" width="5.16" height="5.16"/>
      <rect class="cls-1" x="92.9" y="103.23" width="5.17" height="5.16"/>
      <rect class="cls-1" x="82.58" y="103.23" width="5.16" height="5.16"/>
      <rect class="cls-1" x="139.36" y="77.42" width="5.16" height="5.16"/>
      <rect class="cls-1" x="134.19" y="82.58" width="5.17" height="5.16"/>
      <rect class="cls-1" x="134.19" y="72.26" width="5.17" height="5.16"/>
      <rect class="cls-1" x="134.19" y="67.1" width="5.17" height="5.16"/>
      <rect class="cls-1" x="129.03" y="82.58" width="5.16" height="5.16"/>
      <rect class="cls-1" x="129.03" y="72.26" width="5.16" height="5.16"/>
      <rect class="cls-1" x="129.03" y="67.1" width="5.16" height="5.16"/>
      <rect class="cls-1" x="123.87" y="72.26" width="5.16" height="5.16"/>
      <rect class="cls-1" x="123.87" y="67.1" width="5.16" height="5.16"/>
      <rect class="cls-1" x="123.87" y="61.94" width="5.16" height="5.16"/>
      <rect class="cls-1" x="118.71" y="72.26" width="5.16" height="5.16"/>
      <rect class="cls-1" x="118.71" y="67.1" width="5.16" height="5.16"/>
      <rect class="cls-1" x="118.71" y="61.94" width="5.16" height="5.16"/>
      <rect class="cls-1" x="113.55" y="82.58" width="5.16" height="5.16"/>
      <rect class="cls-1" x="113.55" y="77.42" width="5.16" height="5.16"/>
      <rect class="cls-1" x="113.55" y="72.26" width="5.16" height="5.16"/>
      <rect class="cls-1" x="113.55" y="67.1" width="5.16" height="5.16"/>
      <rect class="cls-1" x="113.55" y="61.94" width="5.16" height="5.16"/>
      <rect class="cls-1" x="113.55" y="56.78" width="5.16" height="5.16"/>
      <rect class="cls-1" x="108.39" y="98.07" width="5.16" height="5.16"/>
      <rect class="cls-1" x="108.39" y="92.9" width="5.16" height="5.17"/>
      <rect class="cls-1" x="108.39" y="87.74" width="5.16" height="5.16"/>
      <rect class="cls-1" x="108.39" y="82.58" width="5.16" height="5.16"/>
      <rect class="cls-1" x="108.39" y="77.42" width="5.16" height="5.16"/>
      <rect class="cls-1" x="108.39" y="72.26" width="5.16" height="5.16"/>
      <rect class="cls-1" x="108.39" y="67.1" width="5.16" height="5.16"/>
      <rect class="cls-1" x="108.39" y="61.94" width="5.16" height="5.16"/>
      <rect class="cls-1" x="108.39" y="56.78" width="5.16" height="5.16"/>
      <rect class="cls-1" x="108.39" y="51.61" width="5.16" height="5.17"/>
      <rect class="cls-1" x="108.39" y="41.29" width="5.16" height="5.16"/>
      <rect class="cls-1" x="103.23" y="98.07" width="5.16" height="5.16"/>
      <rect class="cls-1" x="103.23" y="92.9" width="5.16" height="5.17"/>
      <rect class="cls-1" x="103.23" y="87.74" width="5.16" height="5.16"/>
      <rect class="cls-1" x="103.23" y="82.58" width="5.16" height="5.16"/>
      <rect class="cls-1" x="103.23" y="77.42" width="5.16" height="5.16"/>
      <rect class="cls-1" x="103.23" y="72.26" width="5.16" height="5.16"/>
      <rect class="cls-1" x="103.23" y="67.1" width="5.16" height="5.16"/>
      <rect class="cls-1" x="103.23" y="61.94" width="5.16" height="5.16"/>
      <rect class="cls-1" x="103.23" y="56.78" width="5.16" height="5.16"/>
      <rect class="cls-1" x="103.23" y="51.61" width="5.16" height="5.17"/>
      <rect class="cls-1" x="103.23" y="46.45" width="5.16" height="5.16"/>
      <rect class="cls-1" x="103.23" y="41.29" width="5.16" height="5.16"/>
      <rect class="cls-1" x="98.07" y="98.07" width="5.16" height="5.16"/>
      <rect class="cls-1" x="98.07" y="92.9" width="5.16" height="5.17"/>
      <rect class="cls-1" x="98.07" y="87.74" width="5.16" height="5.16"/>
      <rect class="cls-1" x="98.07" y="82.58" width="5.16" height="5.16"/>
      <rect class="cls-1" x="98.07" y="77.42" width="5.16" height="5.16"/>
      <rect class="cls-1" x="98.07" y="72.26" width="5.16" height="5.16"/>
      <rect class="cls-1" x="98.07" y="67.1" width="5.16" height="5.16"/>
      <rect class="cls-1" x="98.07" y="61.94" width="5.16" height="5.16"/>
      <rect class="cls-1" x="98.07" y="56.78" width="5.16" height="5.16"/>
      <rect class="cls-1" x="98.07" y="51.61" width="5.16" height="5.17"/>
      <rect class="cls-1" x="98.07" y="46.45" width="5.16" height="5.16"/>
      <rect class="cls-1" x="98.07" y="41.29" width="5.16" height="5.16"/>
      <rect class="cls-1" x="98.07" y="36.13" width="5.16" height="5.16"/>
      <rect class="cls-1" x="92.9" y="98.07" width="5.17" height="5.16"/>
      <rect class="cls-1" x="92.9" y="92.9" width="5.17" height="5.17"/>
      <rect class="cls-1" x="92.9" y="87.74" width="5.17" height="5.16"/>
      <rect class="cls-1" x="92.9" y="82.58" width="5.17" height="5.16"/>
      <rect class="cls-1" x="92.9" y="77.42" width="5.17" height="5.16"/>
      <rect class="cls-1" x="92.9" y="72.26" width="5.17" height="5.16"/>
      <rect class="cls-1" x="92.9" y="67.1" width="5.17" height="5.16"/>
      <rect class="cls-1" x="92.9" y="61.94" width="5.17" height="5.16"/>
      <rect class="cls-1" x="92.9" y="56.78" width="5.17" height="5.16"/>
      <rect class="cls-1" x="92.9" y="51.61" width="5.17" height="5.17"/>
      <rect class="cls-1" x="92.9" y="46.45" width="5.17" height="5.16"/>
      <rect class="cls-1" x="92.9" y="41.29" width="5.17" height="5.16"/>
      <rect class="cls-1" x="92.9" y="36.13" width="5.17" height="5.16"/>
      <rect class="cls-1" x="92.9" y="30.97" width="5.17" height="5.16"/>
      <rect class="cls-1" x="92.9" y="15.49" width="5.17" height="5.16"/>
      <rect class="cls-1" x="87.74" y="98.07" width="5.16" height="5.16"/>
      <rect class="cls-1" x="87.74" y="92.9" width="5.16" height="5.17"/>
      <rect class="cls-1" x="87.74" y="87.74" width="5.16" height="5.16"/>
      <rect class="cls-1" x="87.74" y="82.58" width="5.16" height="5.16"/>
      <rect class="cls-1" x="87.74" y="77.42" width="5.16" height="5.16"/>
      <rect class="cls-1" x="87.74" y="72.26" width="5.16" height="5.16"/>
      <rect class="cls-1" x="87.74" y="67.1" width="5.16" height="5.16"/>
      <rect class="cls-1" x="87.74" y="61.94" width="5.16" height="5.16"/>
      <rect class="cls-1" x="87.74" y="56.78" width="5.16" height="5.16"/>
      <rect class="cls-1" x="87.74" y="51.61" width="5.16" height="5.17"/>
      <rect class="cls-1" x="87.74" y="46.45" width="5.16" height="5.16"/>
      <rect class="cls-1" x="87.74" y="41.29" width="5.16" height="5.16"/>
      <rect class="cls-1" x="87.74" y="36.13" width="5.16" height="5.16"/>
      <rect class="cls-1" x="87.74" y="30.97" width="5.16" height="5.16"/>
      <rect class="cls-1" x="87.74" y="15.49" width="5.16" height="5.16"/>
      <rect class="cls-1" x="87.74" y="10.32" width="5.16" height="5.17"/>
      <rect class="cls-1" x="87.74" y="5.16" width="5.16" height="5.16"/>
      <rect class="cls-1" x="82.58" y="98.07" width="5.16" height="5.16"/>
      <rect class="cls-1" x="82.58" y="92.9" width="5.16" height="5.17"/>
      <rect class="cls-1" x="82.58" y="87.74" width="5.16" height="5.16"/>
      <rect class="cls-1" x="82.58" y="82.58" width="5.16" height="5.16"/>
      <rect class="cls-1" x="82.58" y="77.42" width="5.16" height="5.16"/>
      <rect class="cls-1" x="82.58" y="72.26" width="5.16" height="5.16"/>
      <rect class="cls-1" x="82.58" y="67.1" width="5.16" height="5.16"/>
      <rect class="cls-1" x="82.58" y="61.94" width="5.16" height="5.16"/>
      <rect class="cls-1" x="82.58" y="56.78" width="5.16" height="5.16"/>
      <rect class="cls-1" x="82.58" y="51.61" width="5.16" height="5.17"/>
      <rect class="cls-1" x="82.58" y="46.45" width="5.16" height="5.16"/>
      <rect class="cls-1" x="82.58" y="41.29" width="5.16" height="5.16"/>
      <rect class="cls-1" x="82.58" y="36.13" width="5.16" height="5.16"/>
      <rect class="cls-1" x="82.58" y="30.97" width="5.16" height="5.16"/>
      <rect class="cls-1" x="82.58" y="25.81" width="5.16" height="5.16"/>
      <rect class="cls-1" x="82.58" y="10.32" width="5.16" height="5.17"/>
      <rect class="cls-1" x="82.58" y="5.16" width="5.16" height="5.16"/>
      <rect class="cls-1" x="77.42" y="92.9" width="5.16" height="5.17"/>
      <rect class="cls-1" x="77.42" y="77.42" width="5.16" height="5.16"/>
      <rect class="cls-1" x="77.42" y="72.26" width="5.16" height="5.16"/>
      <rect class="cls-1" x="77.42" y="67.1" width="5.16" height="5.16"/>
      <rect class="cls-1" x="77.42" y="61.94" width="5.16" height="5.16"/>
      <rect class="cls-1" x="77.42" y="56.78" width="5.16" height="5.16"/>
      <rect class="cls-1" x="77.42" y="51.61" width="5.16" height="5.17"/>
      <rect class="cls-1" x="77.42" y="46.45" width="5.16" height="5.16"/>
      <rect class="cls-1" x="77.42" y="41.29" width="5.16" height="5.16"/>
      <rect class="cls-1" x="77.42" y="36.13" width="5.16" height="5.16"/>
      <rect class="cls-1" x="77.42" y="30.97" width="5.16" height="5.16"/>
      <rect class="cls-1" x="77.42" y="25.81" width="5.16" height="5.16"/>
      <rect class="cls-1" x="77.42" y="10.32" width="5.16" height="5.17"/>
      <rect class="cls-1" x="77.42" y="5.16" width="5.16" height="5.16"/>
      <rect class="cls-1" x="77.42" width="5.16" height="5.16"/>
      <rect class="cls-1" x="72.26" y="61.94" width="5.16" height="5.16"/>
      <rect class="cls-1" x="72.26" y="56.78" width="5.16" height="5.16"/>
      <rect class="cls-1" x="72.26" y="51.61" width="5.16" height="5.17"/>
      <rect class="cls-1" x="72.26" y="46.45" width="5.16" height="5.16"/>
      <rect class="cls-1" x="72.26" y="41.29" width="5.16" height="5.16"/>
      <rect class="cls-1" x="72.26" y="36.13" width="5.16" height="5.16"/>
      <rect class="cls-1" x="72.26" y="30.97" width="5.16" height="5.16"/>
      <rect class="cls-1" x="72.26" y="25.81" width="5.16" height="5.16"/>
      <rect class="cls-1" x="72.26" y="10.32" width="5.16" height="5.17"/>
      <rect class="cls-1" x="72.26" y="5.16" width="5.16" height="5.16"/>
      <rect class="cls-1" x="72.26" width="5.16" height="5.16"/>
      <rect class="cls-1" x="67.1" y="61.94" width="5.16" height="5.16"/>
      <rect class="cls-1" x="67.1" y="56.78" width="5.16" height="5.16"/>
      <rect class="cls-1" x="67.1" y="51.61" width="5.16" height="5.17"/>
      <rect class="cls-1" x="67.1" y="46.45" width="5.16" height="5.16"/>
      <rect class="cls-1" x="67.1" y="41.29" width="5.16" height="5.16"/>
      <rect class="cls-1" x="67.1" y="36.13" width="5.16" height="5.16"/>
      <rect class="cls-1" x="67.1" y="30.97" width="5.16" height="5.16"/>
      <rect class="cls-1" x="67.1" y="25.81" width="5.16" height="5.16"/>
      <rect class="cls-1" x="67.1" y="10.32" width="5.16" height="5.17"/>
      <rect class="cls-1" x="67.1" y="5.16" width="5.16" height="5.16"/>
      <rect class="cls-1" x="67.1" width="5.16" height="5.16"/>
      <rect class="cls-1" x="61.94" y="108.39" width="5.16" height="5.16"/>
      <rect class="cls-1" x="61.94" y="103.23" width="5.16" height="5.16"/>
      <rect class="cls-1" x="61.94" y="98.07" width="5.16" height="5.16"/>
      <rect class="cls-1" x="61.94" y="92.9" width="5.16" height="5.17"/>
      <rect class="cls-1" x="61.94" y="87.74" width="5.16" height="5.16"/>
      <rect class="cls-1" x="61.94" y="82.58" width="5.16" height="5.16"/>
      <rect class="cls-1" x="61.94" y="77.42" width="5.16" height="5.16"/>
      <rect class="cls-1" x="61.94" y="72.26" width="5.16" height="5.16"/>
      <rect class="cls-1" x="61.94" y="67.1" width="5.16" height="5.16"/>
      <rect class="cls-1" x="61.94" y="61.94" width="5.16" height="5.16"/>
      <rect class="cls-1" x="61.94" y="56.78" width="5.16" height="5.16"/>
      <rect class="cls-1" x="61.94" y="51.61" width="5.16" height="5.17"/>
      <rect class="cls-1" x="61.94" y="46.45" width="5.16" height="5.16"/>
      <rect class="cls-1" x="61.94" y="41.29" width="5.16" height="5.16"/>
      <rect class="cls-1" x="61.94" y="36.13" width="5.16" height="5.16"/>
      <rect class="cls-1" x="61.94" y="30.97" width="5.16" height="5.16"/>
      <rect class="cls-1" x="61.94" y="25.81" width="5.16" height="5.16"/>
      <rect class="cls-1" x="61.94" y="10.32" width="5.16" height="5.17"/>
      <rect class="cls-1" x="61.94" y="5.16" width="5.16" height="5.16"/>
      <rect class="cls-1" x="61.94" width="5.16" height="5.16"/>
      <rect class="cls-1" x="56.78" y="123.87" width="5.16" height="5.16"/>
      <rect class="cls-1" x="56.78" y="118.71" width="5.16" height="5.16"/>
      <rect class="cls-1" x="56.78" y="113.55" width="5.16" height="5.16"/>
      <rect class="cls-1" x="56.78" y="108.39" width="5.16" height="5.16"/>
      <rect class="cls-1" x="56.78" y="103.23" width="5.16" height="5.16"/>
      <rect class="cls-1" x="56.78" y="98.07" width="5.16" height="5.16"/>
      <rect class="cls-1" x="56.78" y="92.9" width="5.16" height="5.17"/>
      <rect class="cls-1" x="56.78" y="87.74" width="5.16" height="5.16"/>
      <rect class="cls-1" x="56.78" y="82.58" width="5.16" height="5.16"/>
      <rect class="cls-1" x="56.78" y="77.42" width="5.16" height="5.16"/>
      <rect class="cls-1" x="56.78" y="72.26" width="5.16" height="5.16"/>
      <rect class="cls-1" x="56.78" y="67.1" width="5.16" height="5.16"/>
      <rect class="cls-1" x="56.78" y="61.94" width="5.16" height="5.16"/>
      <rect class="cls-1" x="56.78" y="56.78" width="5.16" height="5.16"/>
      <rect class="cls-1" x="56.78" y="51.61" width="5.16" height="5.17"/>
      <rect class="cls-1" x="56.78" y="46.45" width="5.16" height="5.16"/>
      <rect class="cls-1" x="56.78" y="41.29" width="5.16" height="5.16"/>
      <rect class="cls-1" x="56.78" y="36.13" width="5.16" height="5.16"/>
      <rect class="cls-1" x="56.78" y="30.97" width="5.16" height="5.16"/>
      <rect class="cls-1" x="56.78" y="25.81" width="5.16" height="5.16"/>
      <rect class="cls-1" x="56.78" y="10.32" width="5.16" height="5.17"/>
      <rect class="cls-1" x="56.78" y="5.16" width="5.16" height="5.16"/>
      <rect class="cls-1" x="51.61" y="123.87" width="5.17" height="5.16"/>
      <rect class="cls-1" x="51.61" y="118.71" width="5.17" height="5.16"/>
      <rect class="cls-1" x="51.61" y="113.55" width="5.17" height="5.16"/>
      <rect class="cls-1" x="51.61" y="108.39" width="5.17" height="5.16"/>
      <rect class="cls-1" x="51.61" y="103.23" width="5.17" height="5.16"/>
      <rect class="cls-1" x="51.61" y="98.07" width="5.17" height="5.16"/>
      <rect class="cls-1" x="51.61" y="92.9" width="5.17" height="5.17"/>
      <rect class="cls-1" x="51.61" y="87.74" width="5.17" height="5.16"/>
      <rect class="cls-1" x="51.61" y="82.58" width="5.17" height="5.16"/>
      <rect class="cls-1" x="51.61" y="77.42" width="5.17" height="5.16"/>
      <rect class="cls-1" x="51.61" y="72.26" width="5.17" height="5.16"/>
      <rect class="cls-1" x="51.61" y="67.1" width="5.17" height="5.16"/>
      <rect class="cls-1" x="51.61" y="61.94" width="5.17" height="5.16"/>
      <rect class="cls-1" x="51.61" y="56.78" width="5.17" height="5.16"/>
      <rect class="cls-1" x="51.61" y="51.61" width="5.17" height="5.17"/>
      <rect class="cls-1" x="51.61" y="46.45" width="5.17" height="5.16"/>
      <rect class="cls-1" x="51.61" y="41.29" width="5.17" height="5.16"/>
      <rect class="cls-1" x="51.61" y="36.13" width="5.17" height="5.16"/>
      <rect class="cls-1" x="51.61" y="30.97" width="5.17" height="5.16"/>
      <rect class="cls-1" x="51.61" y="15.49" width="5.17" height="5.16"/>
      <rect class="cls-1" x="51.61" y="10.32" width="5.17" height="5.17"/>
      <rect class="cls-1" x="51.61" y="5.16" width="5.17" height="5.16"/>
      <rect class="cls-1" x="46.45" y="118.71" width="5.16" height="5.16"/>
      <rect class="cls-1" x="46.45" y="113.55" width="5.16" height="5.16"/>
      <rect class="cls-1" x="46.45" y="108.39" width="5.16" height="5.16"/>
      <rect class="cls-1" x="46.45" y="103.23" width="5.16" height="5.16"/>
      <rect class="cls-1" x="46.45" y="98.07" width="5.16" height="5.16"/>
      <rect class="cls-1" x="46.45" y="92.9" width="5.16" height="5.17"/>
      <rect class="cls-1" x="46.45" y="87.74" width="5.16" height="5.16"/>
      <rect class="cls-1" x="46.45" y="82.58" width="5.16" height="5.16"/>
      <rect class="cls-1" x="46.45" y="77.42" width="5.16" height="5.16"/>
      <rect class="cls-1" x="46.45" y="72.26" width="5.16" height="5.16"/>
      <rect class="cls-1" x="46.45" y="67.1" width="5.16" height="5.16"/>
      <rect class="cls-1" x="46.45" y="61.94" width="5.16" height="5.16"/>
      <rect class="cls-1" x="46.45" y="56.78" width="5.16" height="5.16"/>
      <rect class="cls-1" x="46.45" y="51.61" width="5.16" height="5.17"/>
      <rect class="cls-1" x="46.45" y="46.45" width="5.16" height="5.16"/>
      <rect class="cls-1" x="46.45" y="41.29" width="5.16" height="5.16"/>
      <rect class="cls-1" x="46.45" y="36.13" width="5.16" height="5.16"/>
      <rect class="cls-1" x="46.45" y="30.97" width="5.16" height="5.16"/>
      <rect class="cls-1" x="46.45" y="15.49" width="5.16" height="5.16"/>
      <rect class="cls-1" x="41.29" y="113.55" width="5.16" height="5.16"/>
      <rect class="cls-1" x="41.29" y="108.39" width="5.16" height="5.16"/>
      <rect class="cls-1" x="41.29" y="103.23" width="5.16" height="5.16"/>
      <rect class="cls-1" x="41.29" y="98.07" width="5.16" height="5.16"/>
      <rect class="cls-1" x="41.29" y="92.9" width="5.16" height="5.17"/>
      <rect class="cls-1" x="41.29" y="87.74" width="5.16" height="5.16"/>
      <rect class="cls-1" x="41.29" y="82.58" width="5.16" height="5.16"/>
      <rect class="cls-1" x="41.29" y="77.42" width="5.16" height="5.16"/>
      <rect class="cls-1" x="41.29" y="72.26" width="5.16" height="5.16"/>
      <rect class="cls-1" x="41.29" y="67.1" width="5.16" height="5.16"/>
      <rect class="cls-1" x="41.29" y="61.94" width="5.16" height="5.16"/>
      <rect class="cls-1" x="41.29" y="56.78" width="5.16" height="5.16"/>
      <rect class="cls-1" x="41.29" y="51.61" width="5.16" height="5.17"/>
      <rect class="cls-1" x="41.29" y="46.45" width="5.16" height="5.16"/>
      <rect class="cls-1" x="41.29" y="41.29" width="5.16" height="5.16"/>
      <rect class="cls-1" x="41.29" y="36.13" width="5.16" height="5.16"/>
      <rect class="cls-1" x="36.13" y="108.39" width="5.16" height="5.16"/>
      <rect class="cls-1" x="36.13" y="103.23" width="5.16" height="5.16"/>
      <rect class="cls-1" x="36.13" y="98.07" width="5.16" height="5.16"/>
      <rect class="cls-1" x="36.13" y="92.9" width="5.16" height="5.17"/>
      <rect class="cls-1" x="36.13" y="87.74" width="5.16" height="5.16"/>
      <rect class="cls-1" x="36.13" y="82.58" width="5.16" height="5.16"/>
      <rect class="cls-1" x="36.13" y="77.42" width="5.16" height="5.16"/>
      <rect class="cls-1" x="36.13" y="72.26" width="5.16" height="5.16"/>
      <rect class="cls-1" x="36.13" y="67.1" width="5.16" height="5.16"/>
      <rect class="cls-1" x="36.13" y="61.94" width="5.16" height="5.16"/>
      <rect class="cls-1" x="36.13" y="56.78" width="5.16" height="5.16"/>
      <rect class="cls-1" x="36.13" y="51.61" width="5.16" height="5.17"/>
      <rect class="cls-1" x="36.13" y="46.45" width="5.16" height="5.16"/>
      <rect class="cls-1" x="36.13" y="41.29" width="5.16" height="5.16"/>
      <rect class="cls-1" x="30.97" y="108.39" width="5.16" height="5.16"/>
      <rect class="cls-1" x="30.97" y="103.23" width="5.16" height="5.16"/>
      <rect class="cls-1" x="30.97" y="98.07" width="5.16" height="5.16"/>
      <rect class="cls-1" x="30.97" y="92.9" width="5.16" height="5.17"/>
      <rect class="cls-1" x="30.97" y="87.74" width="5.16" height="5.16"/>
      <rect class="cls-1" x="30.97" y="82.58" width="5.16" height="5.16"/>
      <rect class="cls-1" x="30.97" y="77.42" width="5.16" height="5.16"/>
      <rect class="cls-1" x="30.97" y="72.26" width="5.16" height="5.16"/>
      <rect class="cls-1" x="30.97" y="67.1" width="5.16" height="5.16"/>
      <rect class="cls-1" x="30.97" y="61.94" width="5.16" height="5.16"/>
      <rect class="cls-1" x="30.97" y="56.78" width="5.16" height="5.16"/>
      <rect class="cls-1" x="30.97" y="51.61" width="5.16" height="5.17"/>
      <rect class="cls-1" x="30.97" y="41.29" width="5.16" height="5.16"/>
      <rect class="cls-1" x="30.97" y="36.13" width="5.16" height="5.16"/>
      <rect class="cls-1" x="30.97" y="30.97" width="5.16" height="5.16"/>
      <rect class="cls-1" x="30.97" y="25.81" width="5.16" height="5.16"/>
      <rect class="cls-1" x="30.97" y="20.65" width="5.16" height="5.16"/>
      <rect class="cls-1" x="30.97" y="15.49" width="5.16" height="5.16"/>
      <rect class="cls-1" x="25.81" y="123.87" width="5.16" height="5.16"/>
      <rect class="cls-1" x="25.81" y="118.71" width="5.16" height="5.16"/>
      <rect class="cls-1" x="25.81" y="113.55" width="5.16" height="5.16"/>
      <rect class="cls-1" x="25.81" y="108.39" width="5.16" height="5.16"/>
      <rect class="cls-1" x="25.81" y="103.23" width="5.16" height="5.16"/>
      <rect class="cls-1" x="25.81" y="98.07" width="5.16" height="5.16"/>
      <rect class="cls-1" x="25.81" y="92.9" width="5.16" height="5.17"/>
      <rect class="cls-1" x="25.81" y="82.58" width="5.16" height="5.16"/>
      <rect class="cls-1" x="25.81" y="77.42" width="5.16" height="5.16"/>
      <rect class="cls-1" x="25.81" y="72.26" width="5.16" height="5.16"/>
      <rect class="cls-1" x="25.81" y="67.1" width="5.16" height="5.16"/>
      <rect class="cls-1" x="25.81" y="61.94" width="5.16" height="5.16"/>
      <rect class="cls-1" x="25.81" y="56.78" width="5.16" height="5.16"/>
      <rect class="cls-1" x="25.81" y="36.13" width="5.16" height="5.16"/>
      <rect class="cls-1" x="25.81" y="30.97" width="5.16" height="5.16"/>
      <rect class="cls-1" x="25.81" y="25.81" width="5.16" height="5.16"/>
      <rect class="cls-1" x="25.81" y="20.65" width="5.16" height="5.16"/>
      <rect class="cls-1" x="25.81" y="15.49" width="5.16" height="5.16"/>
      <rect class="cls-1" x="20.65" y="129.03" width="5.16" height="5.16"/>
      <rect class="cls-1" x="20.65" y="123.87" width="5.16" height="5.16"/>
      <rect class="cls-1" x="20.65" y="118.71" width="5.16" height="5.16"/>
      <rect class="cls-1" x="20.65" y="113.55" width="5.16" height="5.16"/>
      <rect class="cls-1" x="20.65" y="108.39" width="5.16" height="5.16"/>
      <rect class="cls-1" x="20.65" y="103.23" width="5.16" height="5.16"/>
      <rect class="cls-1" x="20.65" y="98.07" width="5.16" height="5.16"/>
      <rect class="cls-1" x="20.65" y="72.26" width="5.16" height="5.16"/>
      <rect class="cls-1" x="20.65" y="67.1" width="5.16" height="5.16"/>
      <rect class="cls-1" x="20.65" y="61.94" width="5.16" height="5.16"/>
      <rect class="cls-1" x="20.65" y="30.97" width="5.16" height="5.16"/>
      <rect class="cls-1" x="20.65" y="25.81" width="5.16" height="5.16"/>
      <rect class="cls-1" x="20.65" y="20.65" width="5.16" height="5.16"/>
      <rect class="cls-1" x="15.49" y="129.03" width="5.16" height="5.16"/>
      <rect class="cls-1" x="15.49" y="123.87" width="5.16" height="5.16"/>
      <rect class="cls-1" x="15.49" y="118.71" width="5.16" height="5.16"/>
      <rect class="cls-1" x="15.49" y="113.55" width="5.16" height="5.16"/>
      <rect class="cls-1" x="15.49" y="108.39" width="5.16" height="5.16"/>
      <rect class="cls-1" x="15.49" y="103.23" width="5.16" height="5.16"/>
      <rect class="cls-1" x="15.49" y="77.42" width="5.16" height="5.16"/>
      <rect class="cls-1" x="15.49" y="72.26" width="5.16" height="5.16"/>
      <rect class="cls-1" x="15.49" y="67.1" width="5.16" height="5.16"/>
      <rect class="cls-1" x="15.49" y="61.94" width="5.16" height="5.16"/>
      <rect class="cls-1" x="15.49" y="20.65" width="5.16" height="5.16"/>
      <rect class="cls-1" x="10.32" y="123.87" width="5.17" height="5.16"/>
      <rect class="cls-1" x="10.32" y="118.71" width="5.17" height="5.16"/>
      <rect class="cls-1" x="10.32" y="82.58" width="5.17" height="5.16"/>
      <rect class="cls-1" x="10.32" y="77.42" width="5.17" height="5.16"/>
      <rect class="cls-1" x="5.16" y="82.58" width="5.16" height="5.16"/>
      <rect class="cls-1" x="5.16" y="77.42" width="5.16" height="5.16"/>
      <rect class="cls-1" y="82.58" width="5.16" height="5.16"/>
      <rect class="cls-1" y="77.42" width="5.16" height="5.16"/>
    </g>
  </g>
</svg>